<?xml version="1.0" encoding="UTF-8" standalone="no"?>
<!DOCTYPE svg PUBLIC "-//W3C//DTD SVG 1.1//EN"
 "http://www.w3.org/Graphics/SVG/1.1/DTD/svg11.dtd">
<!-- Generated by graphviz version 14.1.4 (20260321.0153)
 -->
<!-- Title: A34 Pages: 1 -->
<svg width="132pt" height="236pt"
 viewBox="0.00 0.00 132.00 236.00" xmlns="http://www.w3.org/2000/svg" xmlns:xlink="http://www.w3.org/1999/xlink">
<g id="graph0" class="graph" transform="scale(1 1) rotate(0) translate(4 231.84)">
<title>A34</title>
<polygon fill="white" stroke="none" points="-4,4 -4,-231.84 127.69,-231.84 127.69,4 -4,4"/>
<!-- A1 -->
<g id="node1" class="node">
<title>A1</title>
<ellipse fill="none" stroke="black" cx="22.18" cy="-51.67" rx="22.18" ry="22.18"/>
<text xml:space="preserve" text-anchor="middle" x="22.18" y="-46.62" font-family="Times New Roman,serif" font-size="14.00">A1</text>
</g>
<!-- B1 -->
<g id="node4" class="node">
<title>B1</title>
<ellipse fill="none" stroke="black" cx="102.02" cy="-82.67" rx="21.67" ry="21.67"/>
<text xml:space="preserve" text-anchor="middle" x="102.02" y="-77.62" font-family="Times New Roman,serif" font-size="14.00">B1</text>
</g>
<!-- A1&#45;&#45;B1 -->
<g id="edge1" class="edge">
<title>A1&#45;&#45;B1</title>
<path fill="none" stroke="black" d="M43.23,-59.65C54.94,-64.31 69.66,-70.18 81.31,-74.82"/>
</g>
<!-- B3 -->
<g id="node6" class="node">
<title>B3</title>
<ellipse fill="none" stroke="black" cx="102.02" cy="-21.67" rx="21.67" ry="21.67"/>
<text xml:space="preserve" text-anchor="middle" x="102.02" y="-16.62" font-family="Times New Roman,serif" font-size="14.00">B3</text>
</g>
<!-- A1&#45;&#45;B3 -->
<g id="edge2" class="edge">
<title>A1&#45;&#45;B3</title>
<path fill="none" stroke="black" d="M43.23,-43.94C54.94,-39.43 69.66,-33.75 81.31,-29.26"/>
</g>
<!-- A2 -->
<g id="node2" class="node">
<title>A2</title>
<ellipse fill="none" stroke="black" cx="22.18" cy="-205.67" rx="22.18" ry="22.18"/>
<text xml:space="preserve" text-anchor="middle" x="22.18" y="-200.62" font-family="Times New Roman,serif" font-size="14.00">A2</text>
</g>
<!-- B2 -->
<g id="node5" class="node">
<title>B2</title>
<ellipse fill="none" stroke="black" cx="102.02" cy="-205.67" rx="21.67" ry="21.67"/>
<text xml:space="preserve" text-anchor="middle" x="102.02" y="-200.62" font-family="Times New Roman,serif" font-size="14.00">B2</text>
</g>
<!-- A2&#45;&#45;B2 -->
<g id="edge3" class="edge">
<title>A2&#45;&#45;B2</title>
<path fill="none" stroke="black" d="M44.45,-205.67C55.52,-205.67 69.02,-205.67 80.05,-205.67"/>
</g>
<!-- A3 -->
<g id="node3" class="node">
<title>A3</title>
<ellipse fill="none" stroke="black" cx="22.18" cy="-143.67" rx="22.18" ry="22.18"/>
<text xml:space="preserve" text-anchor="middle" x="22.18" y="-138.62" font-family="Times New Roman,serif" font-size="14.00">A3</text>
</g>
<!-- A3&#45;&#45;B2 -->
<g id="edge4" class="edge">
<title>A3&#45;&#45;B2</title>
<path fill="none" stroke="black" d="M40.07,-157.12C53.22,-167.59 71.36,-182.04 84.43,-192.45"/>
</g>
<!-- B4 -->
<g id="node7" class="node">
<title>B4</title>
<ellipse fill="none" stroke="black" cx="102.02" cy="-143.67" rx="21.67" ry="21.67"/>
<text xml:space="preserve" text-anchor="middle" x="102.02" y="-138.62" font-family="Times New Roman,serif" font-size="14.00">B4</text>
</g>
<!-- A3&#45;&#45;B4 -->
<g id="edge5" class="edge">
<title>A3&#45;&#45;B4</title>
<path fill="none" stroke="black" d="M44.45,-143.67C55.52,-143.67 69.02,-143.67 80.05,-143.67"/>
</g>
</g>
</svg>
